<?xml version="1.0" encoding="UTF-8" standalone="no"?>
<!DOCTYPE svg PUBLIC "-//W3C//DTD SVG 1.1//EN" "http://www.w3.org/Graphics/SVG/1.1/DTD/svg11.dtd">
<svg width="100%" height="100%" viewBox="0 0 558 240" version="1.1" xmlns="http://www.w3.org/2000/svg" xmlns:xlink="http://www.w3.org/1999/xlink" xml:space="preserve" xmlns:serif="http://www.serif.com/" style="fill-rule:evenodd;clip-rule:evenodd;stroke-linejoin:round;stroke-miterlimit:2;">
    <g transform="matrix(1,0,0,1,-886.787,0)">
        <path d="M887,240L1168.99,0L1445,0L1445,240L887,240Z" style="fill:rgb(101,193,190);"/>
    </g>
    <g transform="matrix(1,0,0,1,-886.787,0)">
        <path d="M1152.39,239.936L1026.29,121.502L886.787,239.938L1152.39,239.936Z" style="fill:rgb(58,124,184);"/>
    </g>
    <g transform="matrix(1.00194,0,0,-1.02589,-888.507,246.149)">
        <path d="M1170.62,239.938L1026.29,121.502L886.787,239.938L1170.62,239.938Z" style="fill:white;"/>
    </g>
    <g transform="matrix(1,0,0,1,-886.787,0)">
        <path d="M1352,152.44C1351.69,152.568 1351.79,152.883 1351.73,153.107C1350.5,158.282 1346.93,161.627 1341.76,162.5C1339.78,162.834 1337.79,162.665 1335.8,162.696C1333.66,162.728 1331.51,162.71 1329.36,162.7C1327.94,162.693 1327.29,162.065 1327.17,160.617C1327.14,160.234 1327.14,159.847 1327.14,159.461C1327.14,149.074 1327.14,138.687 1327.14,128.302C1327.14,127.917 1327.14,127.529 1327.18,127.146C1327.32,125.666 1328,125.024 1329.45,125.019C1332.8,125.009 1336.15,124.979 1339.5,125.024C1345.09,125.101 1349.7,128.302 1351.32,133.181C1351.59,133.984 1351.78,134.818 1352,135.637C1352,141.237 1352,146.837 1352,152.439L1352,152.44ZM1334.89,143.841C1334.89,147.636 1334.91,151.431 1334.88,155.223C1334.88,155.889 1335.05,156.127 1335.72,156.092C1336.76,156.038 1337.81,156.085 1338.85,156.075C1342.01,156.047 1344.1,154.167 1344.18,150.926C1344.3,146.202 1344.3,141.473 1344.17,136.749C1344.1,133.722 1342.11,131.866 1339.13,131.719C1338,131.663 1336.86,131.737 1335.72,131.684C1335.05,131.651 1334.87,131.887 1334.88,132.554C1334.91,136.317 1334.89,140.079 1334.89,143.841ZM1284.37,196.998C1283.92,196.769 1283.46,196.558 1283.03,196.305C1282.68,196.098 1282.38,195.815 1282.72,195.401C1283.04,195.004 1283.33,195.253 1283.61,195.486C1284.2,195.956 1284.89,196.046 1285.63,195.936C1286.28,195.84 1286.6,195.441 1286.65,194.866C1286.69,194.344 1286.37,193.987 1285.85,193.837C1285.35,193.696 1284.84,193.607 1284.34,193.48C1283.02,193.146 1282.53,192.52 1282.6,191.291C1282.66,190.205 1283.32,189.539 1284.56,189.34C1285.46,189.196 1286.31,189.33 1287.06,189.847C1287.32,190.024 1287.62,190.235 1287.32,190.6C1287.08,190.892 1286.8,190.935 1286.49,190.674C1285.99,190.253 1285.38,190.192 1284.75,190.28C1284.17,190.358 1283.8,190.665 1283.73,191.237C1283.66,191.8 1283.9,192.211 1284.47,192.39C1284.9,192.525 1285.35,192.62 1285.79,192.72C1287.16,193.034 1287.66,193.519 1287.71,194.57C1287.76,195.89 1287.35,196.419 1285.95,196.845C1285.87,196.87 1285.8,196.948 1285.73,197C1285.28,196.998 1284.82,196.998 1284.37,196.998ZM1292.27,197C1290.67,196.415 1290.16,195.259 1290.31,193.71C1290.38,192.975 1290.3,192.228 1290.33,191.489C1290.38,190.499 1291,189.725 1291.89,189.445C1293.06,189.075 1294.51,189.371 1295.13,190.115C1295.33,190.355 1295.59,190.635 1295.29,190.931C1294.97,191.245 1294.66,191.123 1294.39,190.805C1293.84,190.165 1293.09,190.126 1292.34,190.359C1291.57,190.601 1291.43,191.267 1291.42,191.942C1291.4,192.773 1291.41,193.607 1291.43,194.441C1291.45,195.057 1291.64,195.631 1292.32,195.859C1293.03,196.101 1293.74,196.054 1294.31,195.512C1294.6,195.232 1294.87,194.907 1295.26,195.281C1295.66,195.662 1295.24,195.942 1295.01,196.221C1294.66,196.653 1294.07,196.701 1293.63,196.998C1293.18,197 1292.73,197 1292.27,197ZM1303.45,142.322C1303.18,142.736 1303.28,143.086 1303.28,143.41C1303.28,148.862 1303.28,154.317 1303.28,159.769C1303.28,161.595 1302.79,162.221 1300.96,162.559C1299.69,162.804 1298.38,162.76 1297.13,162.43C1295.95,162.11 1295.43,161.434 1295.43,160.213C1295.43,149.306 1295.43,138.403 1295.43,127.496C1295.43,126.215 1296.01,125.543 1297.32,125.23C1298.4,124.975 1299.49,124.954 1300.59,125.074C1301.94,125.224 1302.83,125.856 1303.43,127.144C1306.21,133.094 1309.08,139.001 1311.93,144.924C1312.04,145.168 1312.18,145.398 1312.47,145.603L1312.47,127.777C1312.47,126.157 1313.02,125.509 1314.66,125.177C1315.89,124.925 1317.17,124.942 1318.39,125.228C1319.77,125.545 1320.28,126.201 1320.28,127.579C1320.29,138.421 1320.29,149.263 1320.28,160.104C1320.28,161.504 1319.79,162.127 1318.42,162.476C1317.28,162.766 1316.12,162.734 1314.97,162.605C1313.69,162.462 1312.83,161.811 1312.26,160.62C1309.52,154.827 1306.71,149.063 1303.93,143.286C1303.78,142.985 1303.63,142.688 1303.45,142.322ZM1262.03,139.454C1262.03,135.49 1262.02,131.528 1262.03,127.564C1262.03,126.253 1262.48,125.595 1263.72,125.275C1265.11,124.91 1266.57,124.908 1267.96,125.268C1269.22,125.593 1269.65,126.214 1269.65,127.539C1269.65,135.023 1269.65,142.505 1269.66,149.989C1269.66,151.599 1269.89,153.171 1270.98,154.449C1272.41,156.125 1274.27,156.555 1276.33,156.009C1278.43,155.453 1279.51,153.909 1279.9,151.859C1280.04,151.149 1280.07,150.409 1280.07,149.685C1280.08,142.33 1280.08,134.972 1280.08,127.617C1280.08,126.143 1280.52,125.57 1281.97,125.229C1283.31,124.915 1284.7,124.933 1286.03,125.282C1287.22,125.59 1287.7,126.26 1287.7,127.491C1287.71,135.387 1287.73,143.281 1287.7,151.176C1287.67,156.936 1283.28,161.708 1277.36,162.527C1274.06,162.985 1270.89,162.647 1267.95,161.016C1264.05,158.856 1262.13,155.45 1262.04,151.061C1261.96,147.191 1262.03,143.321 1262.03,139.454ZM1244.5,148.503C1241.94,150.328 1240.22,152.706 1239.68,155.878C1239.44,157.295 1239.52,158.721 1239.51,160.145C1239.5,161.505 1239.03,162.157 1237.77,162.468C1236.45,162.796 1235.07,162.797 1233.76,162.47C1232.49,162.159 1232.02,161.5 1232.01,160.155C1231.98,157.68 1232,155.217 1232.69,152.807C1233.67,149.387 1235.82,146.791 1238.33,144.425C1238.62,144.144 1238.9,143.847 1239.19,143.557C1240.94,141.994 1242.7,140.451 1244.34,138.776C1247.24,136.543 1249.18,133.762 1249.32,129.951C1249.36,129.064 1249.38,128.175 1249.34,127.288C1249.31,126.313 1249.77,125.71 1250.62,125.415C1252.21,124.865 1253.83,124.873 1255.43,125.373C1256.2,125.615 1256.81,126.129 1256.83,126.983C1256.89,129.548 1256.92,132.113 1256.17,134.615C1255.21,137.795 1253.15,140.193 1250.85,142.435C1250.44,142.828 1250.06,143.241 1249.66,143.646C1247.9,145.218 1246.11,146.756 1244.5,148.503Z" style="fill:white;fill-rule:nonzero;"/>
        <path d="M1244,148.867C1245.66,147.068 1247.53,145.48 1249.35,143.857C1252.92,146.873 1255.77,150.346 1256.56,155.149C1256.91,157.226 1256.87,159.318 1256.84,161.407C1256.82,162.36 1256.15,163.04 1255.02,163.311C1253.61,163.648 1252.18,163.67 1250.76,163.306C1249.5,162.98 1248.99,162.294 1248.99,160.989C1248.98,160.171 1248.95,159.354 1248.96,158.539C1249.01,154.431 1246.99,151.401 1244,148.867ZM1244.86,139.009C1243.15,140.707 1241.32,142.273 1239.51,143.857C1237.12,141.794 1234.9,139.59 1233.46,136.737C1231.86,133.587 1231.93,130.204 1232.06,126.825C1232.09,126.066 1232.74,125.601 1233.48,125.381C1235.11,124.893 1236.75,124.856 1238.38,125.374C1239.5,125.734 1239.87,126.297 1239.89,127.456C1239.9,128.421 1239.89,129.386 1239.93,130.349C1240.06,133.272 1241.39,135.635 1243.49,137.632C1243.95,138.081 1244.4,138.551 1244.86,139.009Z" style="fill:white;fill-opacity:0.75;fill-rule:nonzero;"/>
        <path d="M1307.55,194.997C1308.01,193.296 1308.41,191.752 1308.85,190.213C1308.95,189.829 1308.96,189.337 1309.55,189.302C1310.24,189.264 1310.23,189.827 1310.34,190.229C1310.78,191.769 1311.19,193.319 1311.78,194.844C1312.19,193.258 1312.62,191.674 1313,190.084C1313.12,189.581 1313.29,189.168 1313.89,189.321C1314.58,189.499 1314.18,190.005 1314.09,190.351C1313.58,192.286 1313.04,194.214 1312.51,196.144C1312.39,196.594 1312.3,197.014 1311.65,196.997C1310.99,196.983 1310.94,196.536 1310.82,196.097C1310.43,194.676 1310.04,193.257 1309.48,191.851C1309.08,193.296 1308.67,194.739 1308.29,196.189C1308.17,196.618 1308.09,196.983 1307.5,196.999C1306.87,197.016 1306.75,196.632 1306.62,196.166C1306.1,194.17 1305.55,192.179 1305.01,190.185C1304.93,189.866 1304.63,189.465 1305.2,189.321C1305.69,189.199 1306.01,189.396 1306.13,189.921C1306.49,191.427 1306.88,192.923 1307.27,194.423C1307.31,194.568 1307.4,194.701 1307.55,194.997ZM1314.41,176.93C1314.41,178.506 1314.41,180.035 1314.41,181.564C1314.4,181.934 1314.51,182.401 1313.94,182.413C1313.37,182.427 1313.44,181.977 1313.44,181.593C1313.44,179.592 1313.43,177.591 1313.44,175.591C1313.44,175.26 1313.32,174.824 1313.81,174.739C1314.22,174.669 1314.57,174.725 1314.81,175.194C1315.63,176.81 1316.49,178.404 1317.52,180.002L1317.52,176.824C1317.52,176.341 1317.53,175.856 1317.52,175.373C1317.52,175.009 1317.59,174.733 1318.01,174.725C1318.46,174.718 1318.57,174.995 1318.57,175.41C1318.56,177.087 1318.57,178.766 1318.57,180.443C1318.57,180.797 1318.58,181.153 1318.57,181.508C1318.56,181.878 1318.67,182.324 1318.13,182.413C1317.68,182.49 1317.4,182.277 1317.18,181.855C1316.46,180.438 1315.72,179.028 1314.97,177.624C1314.85,177.392 1314.81,177.073 1314.41,176.93ZM1250.73,194.532L1250.73,190.105C1250.73,189.711 1250.68,189.282 1251.25,189.305C1251.76,189.327 1251.7,189.73 1251.7,190.081C1251.7,192.112 1251.71,194.146 1251.7,196.177C1251.69,196.472 1251.83,196.872 1251.39,196.971C1250.96,197.064 1250.63,196.941 1250.4,196.491C1249.62,194.961 1248.81,193.445 1248,191.925C1247.93,191.791 1247.85,191.665 1247.63,191.281C1247.63,193.045 1247.63,194.534 1247.62,196.024C1247.62,196.451 1247.76,197.013 1247.07,196.982C1246.42,196.954 1246.6,196.411 1246.6,196.034C1246.59,194.131 1246.58,192.227 1246.6,190.324C1246.61,189.952 1246.39,189.432 1247,189.308C1247.55,189.198 1247.85,189.508 1248.09,189.978C1248.82,191.395 1249.57,192.798 1250.31,194.206C1250.38,194.34 1250.47,194.462 1250.55,194.591L1250.73,194.532ZM1266.44,176.976C1266.44,178.484 1266.45,179.988 1266.44,181.496C1266.44,181.885 1266.59,182.412 1265.94,182.412C1265.29,182.412 1265.45,181.878 1265.44,181.493C1265.43,179.523 1265.43,177.554 1265.44,175.584C1265.45,175.254 1265.33,174.824 1265.83,174.738C1266.25,174.663 1266.6,174.754 1266.83,175.207C1267.55,176.594 1268.28,177.974 1269.03,179.348C1269.15,179.581 1269.18,179.906 1269.59,180.026C1269.59,178.514 1269.58,177.044 1269.59,175.575C1269.59,175.2 1269.5,174.738 1270.07,174.735C1270.64,174.731 1270.56,175.188 1270.56,175.568C1270.57,177.569 1270.57,179.571 1270.56,181.573C1270.56,181.906 1270.67,182.325 1270.17,182.413C1269.76,182.483 1269.47,182.328 1269.26,181.932C1268.4,180.265 1267.51,178.608 1266.64,176.948L1266.44,176.976ZM1236.89,178.434C1237.89,179.166 1238.19,180.014 1237.89,181.04C1237.57,182.107 1236.71,182.31 1235.79,182.366C1232.87,182.545 1232.87,182.533 1232.87,179.622C1232.87,178.243 1232.89,176.862 1232.86,175.483C1232.84,174.883 1233.06,174.687 1233.63,174.717C1234.3,174.752 1234.97,174.689 1235.64,174.736C1236.48,174.796 1237.32,174.957 1237.65,175.907C1237.99,176.883 1237.83,177.745 1236.89,178.434ZM1233.91,180.069C1233.91,180.854 1233.69,181.549 1234.84,181.464C1236.38,181.352 1236.88,181.138 1236.88,180.195C1236.89,179.285 1236.4,179.04 1235.03,178.94C1233.99,178.863 1233.73,179.294 1233.91,180.07L1233.91,180.069ZM1234.9,175.656C1234.61,175.77 1234.05,175.414 1233.96,175.919C1233.84,176.532 1233.79,177.247 1234.01,177.803C1234.19,178.262 1234.87,177.941 1235.32,177.989C1235.54,178.013 1235.77,177.98 1235.98,177.908C1236.71,177.648 1236.97,176.658 1236.45,176.094C1236.04,175.651 1235.48,175.677 1234.9,175.656ZM1273.14,178.665C1273.17,178.063 1273.17,177.505 1273.22,176.95C1273.3,175.927 1273.77,175.157 1274.74,174.882C1275.81,174.575 1276.86,174.632 1277.7,175.55C1277.91,175.785 1278.22,176.056 1277.86,176.41C1277.54,176.72 1277.29,176.552 1277.04,176.257C1276.47,175.577 1275.72,175.559 1275,175.846C1274.33,176.112 1274.21,176.806 1274.21,177.485C1274.21,178.385 1274.18,179.291 1274.27,180.182C1274.37,181.112 1274.91,181.494 1275.82,181.453C1276.62,181.417 1277.09,180.923 1277.2,180.051C1277.28,179.44 1277.14,179.101 1276.47,179.18C1276.17,179.214 1275.75,179.313 1275.73,178.776C1275.72,178.191 1276.16,178.296 1276.5,178.284C1278.31,178.218 1278.47,178.419 1278.16,180.316C1277.92,181.742 1277.11,182.438 1275.68,182.428C1274.23,182.418 1273.43,181.735 1273.23,180.298C1273.16,179.744 1273.17,179.18 1273.14,178.665ZM1262.9,189.292C1263.23,189.292 1263.55,189.276 1263.87,189.295C1265.17,189.372 1265.87,189.855 1266.14,190.86C1266.46,192.06 1266.16,192.988 1265.08,193.66C1264.65,193.928 1264.77,194.12 1264.95,194.414C1265.28,194.959 1265.63,195.504 1265.94,196.064C1266.08,196.313 1266.51,196.634 1266.14,196.866C1265.77,197.101 1265.26,197.046 1264.98,196.551C1264.59,195.883 1264.16,195.239 1263.83,194.544C1263.56,193.959 1263.13,193.819 1262.59,193.947C1262.01,194.08 1262.3,194.582 1262.27,194.917C1262.22,195.393 1262.25,195.879 1262.26,196.359C1262.26,196.754 1262.1,196.961 1261.69,196.949C1261.33,196.94 1261.15,196.765 1261.15,196.415C1261.14,194.234 1261.14,192.05 1261.14,189.869C1261.14,189.474 1261.35,189.285 1261.74,189.292C1262.13,189.299 1262.52,189.292 1262.9,189.292L1262.9,189.292ZM1262.24,191.677C1262.39,192.177 1261.82,193.074 1263.07,193.021C1264.59,192.955 1265.13,192.638 1265.12,191.607C1265.12,190.629 1264.59,190.347 1263.24,190.23C1261.91,190.116 1262.31,190.989 1262.25,191.677L1262.24,191.677ZM1284.3,178.566C1284.3,178.069 1284.27,177.57 1284.3,177.075C1284.38,175.909 1284.9,175.127 1285.81,174.881C1286.93,174.576 1288.02,174.625 1288.88,175.583C1289.07,175.798 1289.35,176.049 1289.03,176.376C1288.73,176.688 1288.47,176.602 1288.2,176.282C1287.64,175.597 1286.88,175.549 1286.14,175.825C1285.36,176.119 1285.32,176.889 1285.33,177.628C1285.34,178.438 1285.3,179.248 1285.36,180.053C1285.43,181.126 1286.1,181.61 1287.17,181.436C1287.95,181.309 1288.46,180.498 1288.35,179.628C1288.29,179.092 1287.93,179.215 1287.62,179.19C1287.29,179.163 1286.83,179.303 1286.86,178.702C1286.88,178.172 1287.3,178.295 1287.6,178.282C1289.45,178.207 1289.59,178.372 1289.33,180.281C1289.13,181.707 1288.23,182.459 1286.75,182.428C1285.26,182.396 1284.43,181.637 1284.31,180.148C1284.27,179.623 1284.31,179.092 1284.31,178.564L1284.3,178.566ZM1250.01,178.482C1250.01,177.47 1250.03,176.46 1250,175.447C1249.99,174.925 1250.17,174.695 1250.7,174.716C1251.4,174.743 1252.11,174.695 1252.82,174.732C1254.14,174.798 1254.9,175.479 1255.05,176.805C1255.17,177.935 1255.18,179.078 1255.04,180.208C1254.9,181.459 1254.22,182.094 1252.99,182.262C1250.12,182.656 1250.01,182.559 1250.01,179.619C1250.01,179.241 1250.01,178.862 1250.01,178.482ZM1251.07,178.514C1251.07,179.241 1251.06,179.966 1251.07,180.693C1251.07,180.903 1251,181.149 1251.21,181.305C1251.89,181.807 1253.76,181.144 1253.94,180.267C1254.19,179.091 1254.18,177.876 1253.93,176.701C1253.74,175.827 1252.63,175.369 1251.45,175.663C1250.7,175.853 1251.15,176.545 1251.08,177C1251.01,177.495 1251.07,178.01 1251.07,178.514ZM1321.15,178.528C1321.15,177.498 1321.16,176.468 1321.15,175.438C1321.15,175.054 1321.16,174.717 1321.67,174.724C1322.55,174.738 1323.43,174.667 1324.29,174.778C1325.57,174.939 1326.21,175.729 1326.26,177.065C1326.29,178.029 1326.29,178.997 1326.27,179.962C1326.23,181.502 1325.44,182.33 1323.93,182.409C1323.24,182.447 1322.55,182.386 1321.87,182.426C1321.26,182.461 1321.13,182.173 1321.14,181.617C1321.18,180.588 1321.15,179.557 1321.15,178.527L1321.15,178.528ZM1322.21,178.474C1322.21,179.247 1322.21,180.024 1322.22,180.797C1322.22,181.01 1322.15,181.257 1322.36,181.417C1323.02,181.912 1324.91,181.27 1325.1,180.438C1325.39,179.208 1325.39,177.93 1325.1,176.7C1324.91,175.863 1323.83,175.434 1322.64,175.673C1321.84,175.835 1322.3,176.5 1322.23,176.929C1322.15,177.431 1322.21,177.959 1322.21,178.474ZM1336.58,178.527C1336.58,177.525 1336.6,176.52 1336.57,175.517C1336.56,174.943 1336.78,174.699 1337.4,174.715C1338.6,174.745 1339.79,174.727 1340.99,174.722C1341.35,174.72 1341.71,174.75 1341.71,175.194C1341.72,175.647 1341.36,175.668 1341,175.666C1340.18,175.659 1339.36,175.689 1338.54,175.656C1337.99,175.633 1337.69,175.778 1337.78,176.351C1337.78,176.381 1337.78,176.417 1337.78,176.447C1337.81,178.339 1337.56,177.977 1339.36,178.02C1339.77,178.03 1340.18,178.02 1340.59,178.025C1340.94,178.03 1341.18,178.165 1341.19,178.535C1341.21,178.931 1340.94,179.015 1340.59,179.015C1339.91,179.013 1339.23,179.039 1338.55,179.011C1337.97,178.987 1337.79,179.22 1337.77,179.753C1337.69,181.487 1337.67,181.487 1339.48,181.487C1340.03,181.487 1340.57,181.499 1341.12,181.485C1341.48,181.475 1341.73,181.581 1341.71,181.961C1341.7,182.269 1341.51,182.426 1341.18,182.426C1339.85,182.426 1338.52,182.426 1337.19,182.429C1336.59,182.431 1336.57,182.046 1336.57,181.633C1336.58,180.595 1336.58,179.56 1336.58,178.527ZM1297.14,193.088C1297.14,192.053 1297.15,191.018 1297.14,189.984C1297.14,189.584 1297.2,189.274 1297.68,189.286C1298.15,189.298 1298.21,189.622 1298.2,190.013C1298.2,190.238 1298.18,190.469 1298.21,190.692C1298.28,191.312 1297.9,192.282 1298.42,192.482C1299.18,192.772 1300.1,192.58 1300.96,192.563C1301.27,192.556 1301.2,192.251 1301.21,192.042C1301.22,191.329 1301.22,190.619 1301.21,189.907C1301.21,189.517 1301.34,189.293 1301.73,189.288C1302.12,189.284 1302.29,189.486 1302.29,189.883C1302.28,192.049 1302.28,194.216 1302.29,196.382C1302.29,196.77 1302.14,196.992 1301.75,196.998C1301.29,197.005 1301.2,196.718 1301.21,196.304C1301.22,195.594 1301.19,194.882 1301.22,194.169C1301.24,193.709 1301.08,193.504 1300.64,193.56C1300.58,193.567 1300.52,193.563 1300.46,193.56C1298.21,193.51 1298.21,193.51 1298.2,195.9L1298.2,196.384C1298.2,196.764 1298.06,196.995 1297.66,197C1297.26,197.005 1297.14,196.77 1297.14,196.384C1297.15,195.288 1297.14,194.188 1297.14,193.088ZM1310.84,177.764C1310.84,178.558 1310.88,179.356 1310.83,180.144C1310.73,181.651 1309.8,182.449 1308.25,182.428C1306.74,182.408 1305.85,181.637 1305.78,180.154C1305.7,178.569 1305.74,176.98 1305.71,175.393C1305.71,174.996 1305.8,174.703 1306.28,174.715C1306.76,174.726 1306.82,175.042 1306.82,175.425C1306.82,176.855 1306.81,178.283 1306.83,179.713C1306.84,180.933 1307.24,181.409 1308.23,181.434C1309.29,181.462 1309.76,180.991 1309.79,179.759C1309.82,178.332 1309.8,176.901 1309.8,175.471C1309.8,175.116 1309.77,174.74 1310.28,174.719C1310.83,174.696 1310.86,175.061 1310.86,175.479C1310.85,176.239 1310.86,177.003 1310.86,177.764L1310.84,177.764ZM1257.72,177.71C1257.72,176.95 1257.72,176.186 1257.72,175.425C1257.72,175.053 1257.73,174.707 1258.24,174.715C1258.73,174.721 1258.78,175.03 1258.78,175.42C1258.77,176.848 1258.76,178.277 1258.78,179.705C1258.8,180.503 1258.95,181.245 1259.92,181.412C1261.07,181.608 1261.74,181.082 1261.78,179.873C1261.82,178.446 1261.79,177.016 1261.79,175.588C1261.79,175.183 1261.7,174.701 1262.35,174.724C1262.92,174.744 1262.84,175.189 1262.85,175.564C1262.85,176.991 1262.88,178.42 1262.84,179.848C1262.79,181.582 1261.92,182.433 1260.25,182.428C1258.61,182.426 1257.75,181.541 1257.72,179.806C1257.71,179.108 1257.72,178.409 1257.72,177.71ZM1334,178.534C1334,179.602 1334,180.671 1334,181.739C1334,182.063 1334.03,182.411 1333.57,182.428C1333.09,182.444 1333.01,182.15 1333.02,181.741C1333.03,181.029 1333,180.316 1333.02,179.606C1333.04,179.143 1332.86,178.948 1332.43,178.993C1332.4,178.995 1332.37,178.993 1332.34,178.993C1329.92,178.875 1329.93,178.875 1329.9,181.438C1329.89,181.831 1330.13,182.447 1329.39,182.423C1328.7,182.402 1328.88,181.819 1328.88,181.405C1328.86,179.463 1328.87,177.521 1328.87,175.578C1328.87,175.143 1328.85,174.692 1329.45,174.718C1330.05,174.744 1329.87,175.226 1329.9,175.581C1329.91,175.614 1329.9,175.646 1329.9,175.677C1329.92,178.292 1329.96,178.315 1332.52,178.028C1332.94,177.981 1333.03,177.798 1333.02,177.415C1333.01,176.801 1333.01,176.185 1333.02,175.569C1333.02,175.195 1332.92,174.741 1333.5,174.715C1334.09,174.689 1333.99,175.15 1334,175.525C1334,176.525 1334,177.53 1334,178.534ZM1301.54,174.714C1302.09,174.748 1302.75,174.848 1303.31,175.269C1303.58,175.478 1303.79,175.727 1303.54,176.058C1303.31,176.368 1303.02,176.353 1302.72,176.098C1302.19,175.643 1301.55,175.628 1300.91,175.736C1300.38,175.826 1300.07,176.185 1299.99,176.688C1299.91,177.211 1300.17,177.626 1300.66,177.803C1301.2,177.993 1301.78,178.075 1302.33,178.226C1303.5,178.546 1304.03,179.206 1304,180.302C1303.97,181.398 1303.32,182.146 1302.15,182.352C1301.03,182.549 1299.99,182.386 1299.11,181.605C1298.88,181.398 1298.73,181.179 1299,180.891C1299.25,180.641 1299.48,180.626 1299.75,180.864C1300.36,181.412 1301.1,181.544 1301.89,181.417C1302.45,181.328 1302.81,181.009 1302.87,180.429C1302.93,179.844 1302.67,179.466 1302.1,179.3C1301.67,179.176 1301.24,179.083 1300.81,178.979C1299.35,178.623 1298.75,177.886 1298.89,176.631C1299.04,175.433 1299.99,174.705 1301.54,174.714ZM1274.85,196.522C1274.88,196.831 1274.78,196.964 1274.55,196.976C1274.22,196.992 1273.91,196.983 1273.75,196.616C1273.57,196.224 1273.67,195.555 1273.18,195.491C1272.31,195.379 1271.4,195.405 1270.53,195.489C1270.15,195.524 1270.17,196.049 1270.09,196.372C1269.95,196.887 1269.63,197.086 1269.18,196.966C1268.59,196.812 1268.97,196.388 1269.06,196.121C1269.7,194.105 1270.39,192.099 1271.05,190.085C1271.19,189.677 1271.3,189.305 1271.85,189.286C1272.39,189.268 1272.56,189.596 1272.7,190.015C1273.38,192.056 1274.06,194.095 1274.74,196.138C1274.78,196.288 1274.83,196.44 1274.85,196.522ZM1271.92,190.827C1271.52,191.501 1271.4,192.199 1271.19,192.864C1270.63,194.609 1270.63,194.59 1272.43,194.477C1272.93,194.445 1273.04,194.277 1272.89,193.827C1272.57,192.852 1272.26,191.874 1271.92,190.827ZM1316.01,193.153C1316.01,192.15 1316.04,191.145 1316,190.145C1315.98,189.529 1316.17,189.262 1316.87,189.287C1318.03,189.327 1319.2,189.299 1320.37,189.299C1320.72,189.299 1321.11,189.289 1321.14,189.736C1321.17,190.241 1320.76,190.271 1320.36,190.269C1319.67,190.267 1318.98,190.333 1318.3,190.253C1317.27,190.131 1316.94,190.539 1317.1,191.443C1317.11,191.507 1317.11,191.572 1317.1,191.636C1316.97,192.386 1317.27,192.7 1318.1,192.608C1318.68,192.545 1319.27,192.598 1319.85,192.596C1320.22,192.596 1320.54,192.641 1320.57,193.09C1320.6,193.585 1320.23,193.566 1319.88,193.566C1319.2,193.566 1318.51,193.588 1317.83,193.562C1317.31,193.541 1317.12,193.707 1317.09,194.222C1317,196.062 1316.98,196.062 1318.91,196.062C1319.46,196.062 1320.01,196.065 1320.55,196.062C1320.92,196.061 1321.16,196.192 1321.14,196.566C1321.12,196.88 1320.89,197 1320.58,197C1319.24,197 1317.9,197 1316.56,196.998C1316.01,196.998 1316.01,196.628 1316.01,196.253C1316.01,195.225 1316.01,194.189 1316.01,193.153ZM1242.34,189.288C1242.92,189.288 1243.51,189.291 1244.09,189.288C1244.45,189.286 1244.83,189.293 1244.85,189.739C1244.87,190.244 1244.46,190.263 1244.06,190.261C1243.27,190.258 1242.47,190.293 1241.69,190.249C1241.03,190.211 1240.71,190.406 1240.8,191.059C1240.83,191.282 1240.84,191.514 1240.8,191.738C1240.7,192.423 1241,192.658 1241.72,192.599C1242.37,192.548 1243.03,192.588 1243.68,192.592C1244.03,192.595 1244.27,192.717 1244.28,193.097C1244.3,193.515 1244.03,193.562 1243.68,193.562C1242.96,193.56 1242.24,193.586 1241.52,193.555C1240.98,193.534 1240.82,193.729 1240.8,194.229C1240.71,196.059 1240.69,196.056 1242.63,196.056C1243.18,196.056 1243.73,196.058 1244.28,196.056C1244.59,196.054 1244.83,196.156 1244.86,196.476C1244.88,196.847 1244.64,196.993 1244.28,196.996C1242.97,196.998 1241.66,196.991 1240.36,197C1239.85,197.005 1239.71,196.763 1239.71,196.333C1239.72,194.199 1239.72,192.064 1239.71,189.927C1239.71,189.474 1239.9,189.277 1240.38,189.286C1241.03,189.298 1241.69,189.288 1242.34,189.288ZM1291.15,178.535C1291.15,177.502 1291.18,176.467 1291.14,175.435C1291.12,174.877 1291.36,174.703 1291.93,174.715C1293.14,174.743 1294.35,174.727 1295.57,174.722C1295.94,174.72 1296.28,174.738 1296.29,175.199C1296.29,175.663 1295.94,175.671 1295.57,175.669C1294.7,175.661 1293.84,175.687 1292.97,175.659C1292.45,175.64 1292.26,175.781 1292.24,176.305C1292.18,178.025 1292.15,178.025 1294,178.025C1294.38,178.025 1294.76,178.025 1295.14,178.028C1295.5,178.033 1295.75,178.146 1295.75,178.528C1295.76,178.932 1295.48,178.998 1295.13,178.996C1294.44,178.993 1293.74,179.031 1293.06,178.986C1292.4,178.944 1292.25,179.202 1292.24,179.773C1292.22,181.489 1292.19,181.489 1293.99,181.489C1294.58,181.489 1295.17,181.499 1295.76,181.489C1296.1,181.485 1296.28,181.635 1296.28,181.945C1296.29,182.25 1296.13,182.429 1295.78,182.429C1294.4,182.426 1293.02,182.431 1291.63,182.424C1291.12,182.422 1291.15,182.06 1291.15,181.734C1291.15,180.667 1291.15,179.601 1291.15,178.535ZM1233.33,196.06C1234.51,196.06 1235.46,196.057 1236.41,196.062C1236.72,196.064 1237.09,195.996 1237.11,196.486C1237.13,197.024 1236.74,196.996 1236.38,196.996C1235.25,196.999 1234.1,197.003 1232.96,196.996C1232,196.989 1231.75,196.591 1232.25,195.748C1232.84,194.755 1233.49,193.802 1234.12,192.834C1234.5,192.242 1234.9,191.658 1235.27,191.061C1235.4,190.857 1235.69,190.661 1235.53,190.394C1235.37,190.145 1235.06,190.291 1234.82,190.281C1234.28,190.262 1233.74,190.298 1233.2,190.267C1232.84,190.247 1232.26,190.485 1232.25,189.82C1232.24,189.087 1232.86,189.326 1233.25,189.314C1234.2,189.286 1235.15,189.3 1236.1,189.307C1237.18,189.314 1237.41,189.721 1236.83,190.675C1236.21,191.687 1235.54,192.663 1234.89,193.656L1233.33,196.059L1233.33,196.06ZM1327.63,196.063L1330.77,196.063C1331.07,196.063 1331.37,196.059 1331.39,196.476C1331.42,196.927 1331.13,196.999 1330.77,196.999C1329.62,196.997 1328.47,197.002 1327.32,196.999C1326.29,196.997 1326.01,196.532 1326.56,195.639C1327.29,194.469 1328.1,193.351 1328.83,192.186C1329.19,191.61 1330.01,191.001 1329.73,190.44C1329.51,190.013 1328.49,190.387 1327.84,190.291C1327.36,190.221 1326.54,190.646 1326.52,189.831C1326.5,188.984 1327.34,189.385 1327.8,189.353C1328.66,189.292 1329.52,189.332 1330.39,189.336C1331.46,189.343 1331.71,189.773 1331.12,190.699C1330.17,192.184 1329.18,193.64 1328.21,195.111C1328.04,195.371 1327.89,195.641 1327.63,196.063ZM1276.59,193.06C1276.59,192.155 1276.57,191.252 1276.59,190.347C1276.61,189.91 1276.37,189.263 1277.23,189.287C1278.1,189.307 1277.8,189.968 1277.81,190.389C1277.84,192.005 1277.85,193.62 1277.81,195.234C1277.8,195.844 1277.96,196.113 1278.67,196.061C1279.44,196.007 1280.21,196.054 1280.98,196.047C1281.36,196.045 1281.72,196.08 1281.71,196.527C1281.7,196.969 1281.33,196.995 1280.96,196.995C1279.77,196.992 1278.58,196.976 1277.39,197C1276.8,197.011 1276.57,196.793 1276.58,196.256C1276.6,195.194 1276.59,194.126 1276.59,193.061L1276.59,193.06ZM1256.32,193.588C1256.32,192.746 1256.28,191.902 1256.33,191.062C1256.36,190.43 1256.17,190.162 1255.55,190.249C1255.3,190.284 1255.05,190.253 1254.8,190.253C1254.51,190.253 1254.3,190.154 1254.29,189.821C1254.28,189.458 1254.47,189.287 1254.81,189.287C1256.18,189.284 1257.57,189.287 1258.95,189.287C1259.25,189.287 1259.42,189.454 1259.43,189.759C1259.44,190.129 1259.22,190.225 1258.88,190.263C1257.42,190.427 1257.42,190.439 1257.42,192.007C1257.42,193.4 1257.42,194.792 1257.42,196.184C1257.42,196.588 1257.43,196.988 1256.87,197C1256.32,197.01 1256.31,196.63 1256.31,196.212C1256.32,195.337 1256.32,194.462 1256.32,193.588ZM1245.23,178.195L1245.23,179.066C1245.23,181.482 1245.23,181.482 1247.84,181.484C1248.06,181.484 1248.27,181.486 1248.48,181.484C1248.83,181.479 1249.13,181.524 1249.14,181.93C1249.15,182.32 1248.89,182.424 1248.52,182.424C1247.24,182.424 1245.96,182.417 1244.67,182.429C1244.16,182.433 1244,182.201 1244,181.766C1244.01,179.635 1244.01,177.506 1244,175.376C1244,175.018 1244.07,174.729 1244.56,174.715C1245.08,174.701 1245.23,174.962 1245.23,175.387C1245.22,176.322 1245.22,177.257 1245.23,178.195ZM1348.94,178.968C1348.94,178.128 1348.9,177.283 1348.95,176.448C1348.99,175.796 1348.76,175.566 1348.15,175.653C1347.93,175.683 1347.71,175.655 1347.48,175.658C1347.14,175.662 1346.83,175.629 1346.86,175.158C1346.88,174.761 1347.15,174.714 1347.46,174.714L1351.43,174.714C1351.74,174.714 1351.99,174.778 1352,175.18C1352.01,175.58 1351.78,175.632 1351.45,175.665C1349.94,175.813 1349.94,175.822 1349.94,177.354C1349.94,178.744 1349.95,180.134 1349.94,181.523C1349.94,181.918 1350.07,182.44 1349.41,182.428C1348.72,182.414 1348.95,181.854 1348.94,181.49C1348.92,180.65 1348.94,179.808 1348.94,178.968ZM1323.72,193.138L1323.72,190.044C1323.72,189.674 1323.72,189.305 1324.12,189.287C1324.57,189.265 1324.57,189.653 1324.57,190.067C1324.57,192.129 1324.57,194.192 1324.57,196.254C1324.57,196.616 1324.6,196.983 1324.18,196.999C1323.73,197.019 1323.71,196.644 1323.71,196.23C1323.72,195.2 1323.72,194.168 1323.72,193.138ZM1344.28,178.635C1344.28,179.667 1344.28,180.7 1344.29,181.73C1344.29,182.127 1344.2,182.442 1343.42,182.428C1342.66,182.414 1342.57,182.097 1342.57,181.704C1342.58,179.608 1342.58,177.511 1342.57,175.415C1342.57,175.008 1342.72,174.715 1343.46,174.715C1344.26,174.715 1344.29,175.058 1344.29,175.439C1344.28,176.506 1344.28,177.569 1344.28,178.635ZM1241.42,178.658C1241.42,179.693 1241.41,180.728 1241.43,181.762C1241.43,182.192 1241.23,182.446 1240.52,182.428C1239.89,182.413 1239.72,182.16 1239.72,181.783C1239.72,179.65 1239.72,177.516 1239.71,175.383C1239.71,174.955 1239.93,174.701 1240.63,174.715C1241.39,174.731 1241.43,175.072 1241.42,175.455C1241.41,176.525 1241.42,177.593 1241.42,178.658Z" style="fill:white;fill-rule:nonzero;"/>
    </g>
</svg>
